<svg xmlns="http://www.w3.org/2000/svg" xmlns:xlink="http://www.w3.org/1999/xlink" viewBox="0 0 156 156"><defs><style>.cls-1{fill:url(#linear-gradient);}</style><linearGradient id="linear-gradient" y1="78" x2="156" y2="78" gradientUnits="userSpaceOnUse"><stop offset="0" stop-color="#93428f"/><stop offset="0.3" stop-color="#d2003a"/><stop offset="0.37" stop-color="#d2183a"/><stop offset="0.51" stop-color="#d2433a"/><stop offset="0.65" stop-color="#d2643a"/><stop offset="0.78" stop-color="#d27c3a"/><stop offset="0.9" stop-color="#d28b3a"/><stop offset="1" stop-color="#d2903a"/></linearGradient></defs><g id="Layer_2" data-name="Layer 2"><g id="Layer_1-2" data-name="Layer 1"><path class="cls-1" d="M153.15,11.89l-9-9a9.75,9.75,0,0,0-13.79,0h0L116.23,17a10.76,10.76,0,0,0-2.6,4.21l-3.7,11.12L86.69,55.54A34.42,34.42,0,0,0,74.47,49.7c-10.19-2.37-20.41-.26-27.38,6.71a25,25,0,0,0-6.17,10.2,15.43,15.43,0,0,1-12.84,10.5A30.53,30.53,0,0,0,9,85.77c-13.91,13.87-11.41,38.86,5.5,55.75S56.37,160.88,70.25,147a30.6,30.6,0,0,0,8.67-19.11,15.45,15.45,0,0,1,10.49-12.84,25.13,25.13,0,0,0,10.2-6.17c7-7,9.07-17.17,6.71-27.35a34.46,34.46,0,0,0-5.84-12.25l23.23-23.23,11.12-3.7a10.8,10.8,0,0,0,4.2-2.6l14.11-14.12a9.73,9.73,0,0,0,0-13.77ZM63.38,107.26A14.63,14.63,0,1,1,78,92.63,14.63,14.63,0,0,1,63.38,107.26Z"/></g></g></svg>