<svg xmlns="http://www.w3.org/2000/svg" xmlns:xlink="http://www.w3.org/1999/xlink" viewBox="0 0 131.99 132"><defs><style>.cls-1{fill:url(#linear-gradient);}</style><linearGradient id="linear-gradient" y1="66" x2="131.99" y2="66" gradientUnits="userSpaceOnUse"><stop offset="0" stop-color="#93428f"/><stop offset="0.3" stop-color="#d2003a"/><stop offset="0.37" stop-color="#d2183a"/><stop offset="0.51" stop-color="#d2433a"/><stop offset="0.65" stop-color="#d2643a"/><stop offset="0.78" stop-color="#d27c3a"/><stop offset="0.9" stop-color="#d28b3a"/><stop offset="1" stop-color="#d2903a"/></linearGradient></defs><g id="Layer_2" data-name="Layer 2"><g id="Layer_1-2" data-name="Layer 1"><path class="cls-1" d="M128.25,23.72A41.27,41.27,0,0,0,69.75,5.83l-7.09,4.22a8.24,8.24,0,0,0-2.83,11.32l8.46,14.16a8.26,8.26,0,0,0,7.08,4,8.45,8.45,0,0,0,4.23-1.16l7.09-4.23A8.13,8.13,0,0,1,90.92,33a8.26,8.26,0,0,1,4.25,15.34L4,102.5a8.24,8.24,0,0,0-2.83,11.32L9.63,128a8.27,8.27,0,0,0,7.09,4A8.45,8.45,0,0,0,21,130.84L110.49,77.6C129,66.54,137.45,43.18,128.25,23.72ZM82.44,27.07l-.65.39L76.51,11.6A32.38,32.38,0,0,1,84.32,9L89.63,24.9A16.41,16.41,0,0,0,82.44,27.07ZM37.61,111.32,22,101.39,30,96.68l15.6,9.92ZM65.32,94.85l-15.6-9.93,7.94-4.72,15.6,9.93-7.94,4.72Zm28.59-17-15.6-9.93,7.94-4.72,15.6,9.93ZM99.17,27,111,15.13A33.51,33.51,0,0,1,116.86,21L105.07,32.74A17,17,0,0,0,99.17,27Zm21.17,27.79L105,49.68a16.53,16.53,0,0,0,1.9-4.41,16.27,16.27,0,0,0,.47-3.51L122.94,47a34.62,34.62,0,0,1-2.6,7.83Z"/></g></g></svg>