<svg xmlns="http://www.w3.org/2000/svg" xmlns:xlink="http://www.w3.org/1999/xlink" viewBox="0 0 148.97 115.85"><defs><style>.cls-1{fill:url(#linear-gradient);}</style><linearGradient id="linear-gradient" y1="57.92" x2="148.97" y2="57.92" gradientUnits="userSpaceOnUse"><stop offset="0" stop-color="#93428f"/><stop offset="0.3" stop-color="#d2003a"/><stop offset="0.37" stop-color="#d2183a"/><stop offset="0.51" stop-color="#d2433a"/><stop offset="0.65" stop-color="#d2643a"/><stop offset="0.78" stop-color="#d27c3a"/><stop offset="0.9" stop-color="#d28b3a"/><stop offset="1" stop-color="#d2903a"/></linearGradient></defs><g id="Layer_2" data-name="Layer 2"><g id="Layer_1-2" data-name="Layer 1"><path class="cls-1" d="M72.51,30.05,24.83,69.32v42.39A4.14,4.14,0,0,0,29,115.85l29-.08a4.14,4.14,0,0,0,4.12-4.14V86.88a4.14,4.14,0,0,1,4.13-4.14H82.76a4.14,4.14,0,0,1,4.13,4.14v24.74A4.15,4.15,0,0,0,91,115.77h0l29,.08a4.14,4.14,0,0,0,4.14-4.14V69.3L76.47,30.05a3.16,3.16,0,0,0-4,0Zm75.32,26.7L126.21,38.92V3.1a3.1,3.1,0,0,0-3.1-3.1H108.62a3.1,3.1,0,0,0-3.1,3.1V21.88l-23.15-19a12.42,12.42,0,0,0-15.78,0L1.13,56.75a3.1,3.1,0,0,0-.42,4.36h0l6.6,8a3.1,3.1,0,0,0,4.37.43h0l60.83-50.1a3.16,3.16,0,0,1,4,0l60.83,50.1a3.1,3.1,0,0,0,4.37-.41h0l6.6-8a3.09,3.09,0,0,0-.43-4.36Z"/></g></g></svg>