<svg xmlns="http://www.w3.org/2000/svg" xmlns:xlink="http://www.w3.org/1999/xlink" viewBox="0 0 152.15 121.72"><defs><style>.cls-1{fill:url(#linear-gradient);}</style><linearGradient id="linear-gradient" y1="60.86" x2="152.15" y2="60.86" gradientUnits="userSpaceOnUse"><stop offset="0" stop-color="#93428f"/><stop offset="0.3" stop-color="#d2003a"/><stop offset="0.37" stop-color="#d2183a"/><stop offset="0.51" stop-color="#d2433a"/><stop offset="0.65" stop-color="#d2643a"/><stop offset="0.78" stop-color="#d27c3a"/><stop offset="0.9" stop-color="#d28b3a"/><stop offset="1" stop-color="#d2903a"/></linearGradient></defs><g id="Layer_2" data-name="Layer 2"><g id="Layer_1-2" data-name="Layer 1"><path class="cls-1" d="M49.45,83.68a5.61,5.61,0,0,0-1.68.26A31.37,31.37,0,0,1,38,85.58a31.48,31.48,0,0,1-9.74-1.64,5.6,5.6,0,0,0-1.67-.26A26.63,26.63,0,0,0,0,110.46a11.38,11.38,0,0,0,11.41,11.26H64.66a11.39,11.39,0,0,0,11.42-11.26A26.64,26.64,0,0,0,49.45,83.68ZM38,76.07A22.82,22.82,0,1,0,15.22,53.25,22.82,22.82,0,0,0,38,76.07ZM140.74,0H49.45A11.62,11.62,0,0,0,38,11.79v11a30,30,0,0,1,15.21,4.23V15.21h83.69V83.68H121.72V68.47H91.29V83.68H73.17A30.3,30.3,0,0,1,82.6,98.9h58.14a11.62,11.62,0,0,0,11.41-11.79V11.79A11.62,11.62,0,0,0,140.74,0Z"/></g></g></svg>